<svg xmlns="http://www.w3.org/2000/svg" viewBox="0 0 320 200" role="img" aria-label="Street map centred on Eis Cortina"><rect width="320" height="200" fill="#FAF7F1"/><g fill="none" stroke="#CBE9DC" stroke-width="9" stroke-linecap="round" stroke-linejoin="round"><path d="M246,58 255,53 265,49 287,42 309,34 320,30 332,26 337,23 343,18 344,17 347,13"/><path d="M347,13 391,-19 426,-62 465,-127"/><path d="M40,101 44,99 45,98 46,98"/><path d="M31,105 40,101"/><path d="M178,92 189,90 204,81 246,58"/><path d="M343,18 354,40 362,57 366,73 387,183 381,258"/><path d="M95,90 104,89"/><path d="M104,89 109,89"/><path d="M109,89 120,88 124,88"/><path d="M124,88 129,87 137,87 153,88 176,92 178,92"/><path d="M-43,127 -40,126"/><path d="M-40,126 -39,126"/><path d="M-39,126 -34,125"/><path d="M-34,125 -33,125"/><path d="M-33,125 -31,124"/><path d="M-31,124 -30,124"/><path d="M-30,124 -27,124"/><path d="M-27,124 -24,123"/><path d="M-24,123 -22,123"/><path d="M-22,123 -21,122"/><path d="M-21,122 -17,122"/><path d="M-17,122 -15,121"/><path d="M-15,121 -13,121"/><path d="M-13,121 -8,119"/><path d="M-8,119 -7,119"/><path d="M-7,119 -4,118"/><path d="M-4,118 -1,117"/><path d="M-1,117 0,117"/><path d="M0,117 2,116"/><path d="M2,116 3,116"/><path d="M3,116 6,115"/><path d="M6,115 7,114"/><path d="M7,114 10,113"/><path d="M10,113 11,113"/><path d="M11,113 12,113"/><path d="M12,113 13,112 15,112"/><path d="M15,112 16,111"/><path d="M16,111 17,111"/><path d="M17,111 21,109"/><path d="M21,109 22,108"/><path d="M22,108 24,108 26,107"/><path d="M26,107 27,106 31,105"/><path d="M46,98 47,98"/><path d="M47,98 48,97 55,95 65,93 73,91 76,91"/><path d="M76,91 78,91"/><path d="M78,91 83,91 95,90"/></g><g fill="#CBE9DC"><path d="M-1,163 -1,162 -2,163 -1,164 -1,163 Z"/><path d="M-5,55 -6,55 -6,54 -6,53 -5,53 -4,54 -4,55 -5,55 Z"/><path d="M154,108 154,109 153,109 153,108 154,108 Z"/><path d="M154,108 154,109 153,109 153,108 154,108 Z"/></g><g fill="#E9E9E6"><path d="M47,38 46,38 46,40 46,42 45,42 45,40 45,38 45,30 45,23 70,23 84,23 85,36 72,37 69,38 65,38 47,38 Z"/><path d="M258,212 255,206 253,203 251,199 249,194 249,189 250,189 253,187 254,187 258,185 260,184 262,183 263,183 266,181 267,181 271,179 270,177 272,176 275,175 276,177 278,175 279,175 281,176 282,176 281,177 284,181 285,182 286,181 285,180 286,180 286,181 289,180 288,179 289,178 289,179 292,178 291,177 292,177 292,178 295,177 295,176 295,177 298,178 299,177 299,178 298,178 300,181 301,181 301,182 300,182 299,185 300,185 299,185 299,186 298,185 296,186 296,187 296,188 296,187 296,188 295,186 293,187 293,188 294,187 295,188 295,189 295,190 294,191 296,192 296,193 296,195 293,196 294,197 293,197 293,196 291,198 290,198 289,198 286,200 285,200 281,202 282,202 281,202 277,204 273,206 272,206 268,208 269,208 268,208 264,210 263,210 258,212 Z"/><path d="M166,55 165,54 165,53 164,53 164,52 165,52 164,49 164,47 164,46 164,45 165,45 164,42 166,42 166,41 167,41 170,41 171,40 171,41 175,41 175,40 176,40 176,41 179,40 180,40 184,40 184,39 184,37 185,35 193,35 194,36 194,39 196,39 197,39 196,40 197,40 197,41 198,41 198,42 197,43 199,45 200,44 200,45 199,46 199,48 200,48 200,49 199,49 198,50 198,51 197,52 197,51 195,51 195,52 195,54 196,54 196,55 195,55 195,56 194,56 191,56 190,57 190,56 189,56 186,56 185,56 181,56 182,58 179,58 176,58 176,57 173,57 172,57 168,57 168,58 167,58 167,57 166,57 166,56 167,56 167,55 166,55 Z"/><path d="M359,138 346,133 346,132 335,126 329,140 319,164 343,185 351,178 334,163 336,158 334,157 337,150 337,149 338,146 339,146 339,144 341,141 342,141 355,147 357,142 359,138 Z"/><path d="M-30,62 -18,62 -17,62 -11,62 -11,63 -8,63 -8,62 -7,62 -7,63 -5,63 -5,62 -4,62 -4,63 -2,63 -1,62 0,62 -1,64 1,65 2,64 2,65 1,66 1,68 2,69 1,69 -1,70 0,72 -1,72 -1,71 -4,71 -4,72 -5,72 -5,71 -7,71 -7,75 -12,75 -12,73 -12,72 -17,72 -20,72 -21,72 -30,72 -30,62 Z"/><path d="M187,101 185,93 186,93 185,90 178,91 178,95 179,96 179,98 179,99 179,100 179,101 182,109 179,110 179,111 180,111 181,114 181,113 183,112 184,114 196,109 194,105 197,104 196,101 194,102 192,99 187,101 Z"/><path d="M280,28 282,30 283,31 286,33 287,37 296,32 296,33 307,28 304,22 308,20 311,26 320,22 323,21 322,18 332,3 334,1 334,0 335,-1 326,-8 325,-9 324,-10 321,-6 312,-12 311,-12 293,13 272,-2 267,4 265,3 271,17 272,16 278,30 279,30 280,28 Z"/><path d="M175,152 176,156 187,153 186,150 189,150 188,149 175,152 Z"/><path d="M176,157 178,165 180,164 186,162 189,161 192,160 198,157 198,155 195,151 188,153 176,157 176,156 176,157 Z"/><path d="M174,144 175,147 175,148 179,147 180,149 188,147 187,142 185,142 183,142 174,144 Z"/><path d="M140,144 141,139 148,139 149,144 147,162 139,161 140,145 140,144 Z"/><path d="M151,185 148,190 157,197 164,192 151,185 Z"/><path d="M129,144 139,145 140,145 139,161 136,161 133,161 133,160 128,160 128,159 128,156 128,155 128,146 129,144 Z"/><path d="M190,153 195,151 196,149 195,142 195,141 194,141 188,142 190,153 Z"/><path d="M142,194 140,196 135,202 142,210 151,202 142,194 Z"/><path d="M146,189 142,194 151,202 157,197 148,190 146,189 Z"/><path d="M155,178 169,187 170,185 170,183 171,175 158,172 155,178 Z"/><path d="M124,190 118,195 122,203 124,207 126,206 133,202 128,196 125,192 124,190 Z"/><path d="M155,178 153,182 151,185 164,192 169,187 155,178 Z"/><path d="M194,175 194,177 194,182 185,183 185,174 194,175 Z"/><path d="M172,173 178,173 184,174 184,184 172,188 172,185 172,183 171,175 172,173 Z"/><path d="M119,-4 113,-3 115,7 121,5 119,-4 Z"/><path d="M251,-33 251,-32 248,-23 247,-23 248,-22 251,-21 248,-12 251,-6 247,-4 246,-7 245,-7 241,-15 229,-8 234,0 239,8 243,6 250,1 257,-3 258,-4 259,-5 261,-6 273,-23 273,-25 251,-33 Z"/><path d="M168,5 172,0 178,-3 180,1 182,5 172,14 168,5 Z"/><path d="M178,-3 180,1 184,-2 182,-5 178,-3 Z"/><path d="M182,-5 184,-2 186,1 191,-4 189,-8 182,-5 Z"/><path d="M128,146 120,146 117,146 118,155 118,160 119,160 120,160 123,160 128,160 128,159 128,156 128,155 128,146 Z"/><path d="M77,16 68,16 68,15 68,5 67,5 67,-5 77,-5 77,15 77,16 Z"/><path d="M37,44 29,44 29,34 37,34 37,44 Z"/><path d="M102,1 92,2 90,-10 91,-11 90,-11 79,-10 79,-18 89,-18 90,-15 100,-16 102,1 Z"/><path d="M9,44 18,44 19,34 10,34 9,44 Z"/><path d="M37,34 29,34 25,34 25,26 25,25 37,25 37,34 Z"/><path d="M25,44 18,44 19,34 25,34 25,44 Z"/><path d="M64,15 51,15 50,9 54,9 61,8 61,9 64,9 64,15 Z"/><path d="M114,168 105,167 106,159 114,161 114,165 114,166 114,167 114,168 Z"/><path d="M56,42 56,61 55,69 55,89 52,89 52,90 47,90 47,89 44,89 44,69 44,60 45,42 56,42 Z"/><path d="M85,37 88,64 75,65 72,38 85,37 Z"/><path d="M86,68 88,86 77,87 75,69 78,69 78,67 83,66 83,68 86,68 Z"/><path d="M295,142 295,138 289,138 289,143 284,143 285,149 284,149 284,156 286,156 286,163 292,162 296,162 295,142 Z"/><path d="M295,138 289,138 289,135 288,135 288,134 289,134 288,127 294,127 295,138 Z"/><path d="M293,112 286,113 288,125 288,127 294,127 293,112 Z"/><path d="M303,141 310,140 310,138 310,137 310,136 311,136 311,134 310,133 302,134 303,141 Z"/><path d="M310,132 303,133 302,133 301,122 302,122 302,123 309,122 309,125 310,125 310,132 Z"/><path d="M301,111 301,122 302,122 311,121 309,110 301,111 Z"/><path d="M311,148 303,148 303,147 303,141 310,141 311,148 Z"/><path d="M304,155 309,155 311,155 311,148 303,148 304,156 304,155 Z"/><path d="M238,183 239,183 238,172 231,173 233,184 238,183 Z"/><path d="M231,185 232,190 232,192 232,193 243,191 242,188 242,184 238,184 233,185 231,185 Z"/><path d="M232,193 233,200 240,199 243,198 243,197 243,192 243,191 232,193 Z"/><path d="M219,204 218,199 221,199 224,198 225,198 226,202 227,202 240,200 241,208 222,212 220,205 219,204 Z"/><path d="M222,176 224,184 229,183 229,185 231,185 233,185 231,174 222,176 Z"/><path d="M221,176 225,193 216,196 214,189 212,179 221,176 Z"/><path d="M203,182 205,190 211,189 212,192 206,193 206,194 206,196 209,196 212,195 215,195 213,188 211,179 203,182 Z"/><path d="M272,-2 270,-3 273,-7 272,-8 285,-26 286,-25 287,-27 288,-27 289,-29 290,-28 303,-18 306,-16 309,-15 313,-21 314,-21 317,-19 312,-12 311,-12 293,13 272,-2 Z"/><path d="M157,80 162,80 162,83 162,88 157,87 157,80 Z"/><path d="M157,90 157,95 164,93 163,91 163,90 164,90 157,90 Z"/><path d="M157,95 164,93 165,97 157,99 157,95 Z"/><path d="M162,107 166,114 167,114 172,112 175,110 173,106 180,104 179,102 179,101 179,100 174,102 171,103 162,107 Z"/><path d="M167,114 171,125 176,123 174,120 172,112 167,114 Z"/><path d="M171,125 172,129 174,135 175,134 179,133 183,132 181,125 177,127 176,123 171,125 Z"/><path d="M290,79 282,79 282,81 283,86 283,92 281,92 281,95 277,95 278,106 292,104 291,93 290,79 Z"/><path d="M274,97 275,105 272,106 271,106 270,107 261,107 259,109 257,98 260,98 274,97 Z"/><path d="M304,156 304,158 304,161 304,164 314,164 316,156 304,156 Z"/><path d="M274,97 272,84 271,84 259,87 258,84 253,86 253,87 254,94 255,98 259,97 260,98 274,97 Z"/><path d="M142,63 147,63 147,69 141,70 142,63 Z"/><path d="M154,62 154,53 142,54 142,62 154,62 Z"/><path d="M150,36 152,45 144,46 140,46 134,47 134,37 150,36 Z"/><path d="M151,45 152,52 145,52 145,53 144,53 135,54 135,47 151,45 Z"/><path d="M118,63 119,55 126,55 127,55 126,64 118,63 Z"/><path d="M104,62 105,55 108,55 112,56 112,63 104,62 Z"/><path d="M94,50 93,43 105,42 105,48 105,50 94,50 Z"/><path d="M94,42 93,36 102,35 103,39 103,40 100,40 100,41 94,42 Z"/><path d="M91,25 90,26 90,30 99,29 99,27 98,27 98,24 91,25 Z"/><path d="M91,21 91,25 98,24 97,20 91,21 Z"/><path d="M98,20 102,19 103,25 99,26 98,20 Z"/><path d="M110,15 116,14 118,22 118,23 117,23 117,22 114,22 115,23 112,24 112,22 110,16 110,15 Z"/><path d="M116,14 118,22 123,21 121,13 116,14 Z"/><path d="M122,13 128,11 130,19 130,22 130,23 127,24 126,20 124,20 122,13 Z"/><path d="M128,11 133,9 136,18 132,19 132,18 130,19 128,11 Z"/><path d="M139,8 139,7 144,6 145,10 145,11 142,12 140,12 139,8 Z"/><path d="M154,4 159,7 161,14 157,16 157,14 156,15 155,11 154,4 Z"/><path d="M152,24 157,31 152,34 152,33 147,26 147,25 151,24 152,24 Z"/><path d="M152,24 156,20 157,22 161,26 162,27 157,31 152,24 Z"/><path d="M155,17 154,16 155,15 156,15 157,14 157,16 161,14 163,17 157,22 156,20 155,17 Z"/><path d="M161,26 165,22 163,17 157,22 161,26 Z"/><path d="M105,42 105,48 112,48 111,42 105,42 Z"/><path d="M113,29 117,29 117,28 121,28 121,32 119,32 118,36 126,36 126,45 120,45 121,43 118,43 117,49 112,48 111,42 113,42 114,37 112,37 113,29 Z"/><path d="M127,36 133,37 133,46 126,45 127,36 Z"/><path d="M134,24 135,28 140,27 139,23 134,24 Z"/><path d="M97,91 97,100 114,99 115,101 116,101 121,101 120,89 119,87 116,87 109,88 110,90 105,90 104,90 97,91 Z"/><path d="M121,101 123,101 124,101 123,89 124,89 120,89 121,101 Z"/><path d="M128,101 135,100 135,89 135,87 130,88 127,88 127,89 128,101 Z"/><path d="M135,89 147,89 148,99 135,100 135,89 Z"/><path d="M-4,112 1,110 -1,103 0,103 0,100 1,100 1,98 -2,99 -10,100 -10,102 -9,113 -4,112 Z"/><path d="M1,110 10,107 8,100 7,97 4,98 1,98 1,100 0,100 0,103 -1,103 1,110 Z"/><path d="M10,107 13,106 12,99 8,100 10,107 Z"/><path d="M12,96 14,104 23,102 23,95 12,96 Z"/><path d="M12,89 12,90 12,96 23,94 23,90 12,89 Z"/><path d="M87,111 91,133 99,132 100,125 99,118 97,110 98,110 97,109 92,110 87,111 Z"/><path d="M98,109 110,108 111,108 111,109 112,118 100,120 98,110 98,109 Z"/><path d="M147,112 147,113 148,115 148,118 149,122 152,122 153,122 158,120 162,119 158,110 157,110 156,110 152,111 150,112 149,112 148,112 147,112 Z"/><path d="M162,119 165,126 156,129 154,129 152,122 153,122 158,120 162,119 Z"/><path d="M159,132 160,134 160,137 170,136 169,134 167,130 159,132 Z"/><path d="M160,137 157,137 157,143 171,144 170,136 160,137 Z"/><path d="M131,105 137,105 141,105 140,105 140,112 140,115 132,116 131,106 131,105 Z"/><path d="M141,105 148,104 148,112 147,112 147,113 141,115 141,112 141,105 Z"/><path d="M123,107 123,106 117,107 116,107 117,117 125,117 123,107 Z"/><path d="M117,117 117,118 118,120 131,120 132,120 131,116 125,117 117,117 Z"/><path d="M118,128 118,135 129,134 129,132 131,127 118,128 Z"/><path d="M118,135 118,141 117,146 120,146 128,146 129,144 129,141 129,134 118,135 Z"/><path d="M194,186 198,184 201,183 201,182 202,182 203,182 205,190 206,193 206,194 196,196 194,186 Z"/><path d="M194,188 185,190 186,199 190,198 190,199 191,199 192,198 192,197 195,196 194,188 Z"/><path d="M177,193 184,190 186,199 187,201 187,205 184,205 185,207 180,208 180,206 182,205 181,200 179,200 177,193 Z"/><path d="M177,193 170,197 170,203 176,202 176,203 179,202 179,200 177,193 Z"/><path d="M161,202 167,199 169,205 169,206 163,207 162,207 161,202 Z"/><path d="M209,197 215,195 218,203 219,204 220,205 219,206 212,208 209,197 Z"/><path d="M187,201 196,200 196,203 197,203 198,210 191,211 190,207 185,208 185,207 184,205 187,205 187,201 Z"/><path d="M198,196 202,195 204,195 206,194 206,198 199,200 198,196 Z"/><path d="M76,204 76,198 77,198 77,195 77,194 85,194 84,202 85,202 85,205 84,205 76,204 Z"/><path d="M87,204 88,197 96,200 94,205 87,204 Z"/><path d="M94,205 97,205 102,207 105,208 108,208 109,205 108,205 108,203 106,203 107,201 108,200 99,197 98,201 96,200 94,205 Z"/><path d="M-8,120 -6,127 -5,131 0,130 -3,119 -5,119 -7,120 -8,120 Z"/><path d="M0,126 -3,119 0,118 3,117 5,116 7,115 10,123 0,126 Z"/><path d="M-5,151 -4,158 0,158 5,157 8,158 8,150 2,150 2,148 1,148 0,148 -1,149 0,150 -5,151 Z"/><path d="M11,147 16,147 16,150 18,149 17,157 10,157 10,154 11,147 Z"/><path d="M18,149 25,150 24,158 17,158 17,157 18,149 Z"/><path d="M24,158 25,150 25,148 32,149 31,158 24,158 Z"/><path d="M25,148 32,148 36,148 35,141 29,141 25,141 24,145 25,145 25,148 Z"/><path d="M11,114 12,114 15,112 17,111 20,110 22,126 14,127 11,114 Z"/><path d="M14,127 15,132 23,131 22,125 14,127 Z"/><path d="M22,126 22,121 32,120 32,125 27,125 22,126 Z"/><path d="M0,126 2,133 8,131 9,131 11,130 12,130 10,124 6,126 6,125 0,127 0,126 Z"/><path d="M35,141 35,132 28,134 29,141 35,141 Z"/><path d="M28,134 22,135 23,141 25,141 29,141 28,134 Z"/><path d="M12,144 10,136 3,137 4,140 5,145 5,146 12,144 Z"/><path d="M10,138 19,136 20,142 12,144 10,138 Z"/><path d="M36,110 36,118 41,118 42,124 47,124 45,110 36,110 Z"/><path d="M37,125 42,124 41,118 36,118 37,125 Z"/><path d="M46,110 53,110 53,124 52,130 47,129 47,124 48,124 46,110 Z"/><path d="M53,110 59,110 57,124 57,130 52,130 53,124 53,110 Z"/><path d="M63,111 67,111 66,125 62,124 62,118 63,118 63,116 63,111 Z"/><path d="M71,111 76,111 77,124 77,126 72,126 71,126 71,122 71,111 Z"/><path d="M83,127 83,134 82,133 72,132 71,132 72,126 77,126 83,127 Z"/><path d="M62,131 62,124 66,125 67,125 67,131 62,131 Z"/><path d="M72,132 72,135 72,136 71,136 70,140 70,142 71,143 81,144 81,141 81,138 82,137 81,136 82,133 72,132 Z"/><path d="M39,137 39,144 40,144 43,143 49,143 48,136 47,136 45,136 42,136 39,137 Z"/><path d="M39,144 40,154 41,154 49,153 49,144 40,144 39,144 Z"/><path d="M40,154 41,161 54,166 55,158 58,159 60,160 61,157 56,156 49,155 49,154 41,155 41,154 40,154 Z"/><path d="M58,159 57,161 59,161 59,163 58,168 54,167 54,166 55,158 58,159 Z"/><path d="M59,163 60,160 61,157 63,157 67,158 65,170 58,168 59,163 Z"/><path d="M71,143 71,145 72,145 72,147 71,147 70,150 74,151 75,151 76,151 76,150 77,150 77,151 80,152 81,148 82,148 82,144 81,144 71,143 Z"/><path d="M112,118 112,128 104,128 101,129 101,126 101,125 100,120 112,118 Z"/><path d="M112,136 112,137 112,140 101,141 100,136 112,136 Z"/><path d="M112,140 112,143 112,144 109,143 101,143 101,141 112,140 Z"/><path d="M112,147 112,151 102,151 99,150 99,147 101,147 112,147 Z"/><path d="M88,134 88,135 88,140 99,139 99,132 88,134 Z"/><path d="M91,187 88,197 96,200 97,197 100,190 91,187 Z"/><path d="M70,177 81,181 80,184 80,185 79,191 78,191 78,192 68,190 70,177 Z"/><path d="M80,185 82,186 84,186 86,186 90,186 88,193 87,192 84,192 81,191 79,191 80,185 Z"/><path d="M49,170 48,172 45,171 44,175 47,175 47,176 47,177 57,179 57,178 58,173 49,170 Z"/><path d="M67,179 67,192 61,191 62,178 67,179 Z"/><path d="M47,183 54,184 54,186 56,187 55,190 60,190 61,180 57,180 57,181 56,181 57,179 47,177 47,183 Z"/><path d="M29,165 29,166 28,179 36,179 37,169 37,166 38,166 37,166 29,165 Z"/><path d="M7,178 9,186 16,186 16,187 26,187 26,178 21,177 20,177 7,178 Z"/><path d="M6,163 10,163 13,162 13,163 16,162 17,174 17,175 17,177 7,178 6,172 7,172 6,163 Z"/><path d="M29,165 21,166 21,177 28,178 28,166 29,166 29,165 Z"/><path d="M6,164 4,164 3,165 2,166 -2,167 -11,174 -9,178 -8,177 6,172 6,170 6,168 6,165 6,164 Z"/><path d="M114,161 114,155 114,154 112,154 110,154 105,153 101,153 98,152 95,152 92,152 90,151 89,151 89,152 88,158 97,158 101,159 106,159 114,161 Z"/><path d="M271,147 280,145 284,163 275,163 274,160 272,151 271,147 Z"/><path d="M274,160 271,161 267,162 266,157 265,153 264,153 264,152 265,152 266,151 269,150 271,150 273,155 274,160 Z"/><path d="M266,162 262,163 257,164 255,156 255,155 255,156 258,155 258,154 260,154 264,153 266,162 Z"/><path d="M253,149 262,145 264,152 255,155 253,149 Z"/><path d="M253,149 251,142 252,142 252,143 260,140 261,142 262,145 253,149 Z"/><path d="M251,142 249,134 262,130 261,129 266,127 267,131 268,134 268,137 261,140 260,139 257,140 252,142 251,142 Z"/><path d="M249,133 255,131 255,130 256,130 256,129 256,128 255,123 255,122 254,123 252,115 245,117 246,120 249,133 Z"/><path d="M252,115 254,115 256,115 260,114 260,121 255,122 254,122 252,115 Z"/><path d="M260,114 270,112 272,120 261,120 260,114 Z"/><path d="M271,115 272,120 272,125 287,122 286,114 286,113 271,115 Z"/><path d="M311,119 322,117 322,108 310,110 311,119 Z"/><path d="M52,97 53,105 60,106 59,96 52,97 Z"/><path d="M59,96 63,94 65,106 60,106 59,96 Z"/><path d="M63,94 69,93 70,96 70,97 70,98 70,105 65,106 63,94 Z"/><path d="M76,97 77,105 70,105 70,98 70,97 70,96 71,97 76,97 Z"/><path d="M69,93 75,92 76,97 71,97 70,96 69,93 Z"/><path d="M81,105 80,98 86,97 87,104 81,105 Z"/><path d="M85,92 89,92 92,92 94,103 87,104 85,92 Z"/><path d="M59,87 60,93 69,91 67,84 59,87 Z"/><path d="M95,76 95,66 103,66 103,68 103,75 101,75 95,76 Z"/><path d="M101,76 111,75 112,82 104,83 105,85 103,85 103,87 97,87 95,76 101,75 101,76 Z"/><path d="M103,68 111,68 112,74 103,75 103,68 Z"/><path d="M111,68 112,68 119,69 119,75 112,74 111,68 Z"/><path d="M127,74 127,75 127,77 127,82 129,82 129,84 131,84 131,85 131,86 133,86 133,85 133,83 139,83 139,80 139,74 127,74 Z"/><path d="M155,78 154,85 154,86 150,86 143,86 143,80 144,80 147,80 147,79 148,78 155,78 Z"/><path d="M143,80 139,80 139,83 138,85 143,86 143,80 Z"/><path d="M238,144 247,141 252,164 248,165 244,166 244,164 240,150 238,144 Z"/><path d="M244,164 236,166 231,149 236,148 236,146 238,145 238,147 239,150 240,153 241,153 241,155 244,164 Z"/><path d="M236,166 229,168 226,161 225,159 227,158 232,156 236,166 Z"/><path d="M211,171 208,157 211,157 216,156 219,170 211,171 Z"/><path d="M217,157 221,156 222,159 223,162 222,166 223,169 219,170 217,157 Z"/><path d="M208,157 207,155 201,156 202,159 203,163 204,172 211,171 208,157 Z"/><path d="M199,171 204,172 203,163 202,163 201,158 197,159 199,171 Z"/><path d="M194,170 189,170 187,169 186,163 194,160 194,170 Z"/><path d="M197,141 202,140 203,140 202,140 206,151 200,153 197,141 Z"/><path d="M203,139 205,145 207,150 208,153 211,153 210,151 212,150 213,152 215,151 214,149 217,148 219,147 218,145 213,135 203,139 Z"/><path d="M215,134 221,131 222,133 226,141 222,143 225,148 221,149 215,134 Z"/><path d="M222,131 228,128 232,137 232,138 230,139 231,139 231,140 231,141 230,141 229,141 229,140 229,139 226,140 223,132 222,131 Z"/><path d="M228,128 234,125 237,135 232,137 228,128 Z"/><path d="M234,125 241,123 245,137 235,140 235,138 235,137 236,137 238,137 234,125 Z"/><path d="M245,137 235,140 237,144 247,141 245,137 Z"/><path d="M221,149 228,146 232,156 227,158 226,154 223,155 221,149 Z"/><path d="M312,205 310,199 310,198 315,197 316,199 321,197 323,195 327,202 324,203 323,203 322,200 319,201 319,203 318,203 312,205 Z"/><path d="M313,172 313,171 306,173 305,174 308,186 316,183 316,181 313,172 Z"/><path d="M310,198 308,192 309,191 314,190 316,196 318,195 321,194 321,197 316,199 315,197 310,198 Z"/><path d="M308,186 309,191 314,190 314,189 316,189 319,188 317,182 316,183 308,186 Z"/><path d="M313,172 318,170 324,177 316,181 313,172 Z"/><path d="M324,177 331,184 322,192 321,190 320,187 318,182 324,177 Z"/><path d="M317,156 320,148 313,146 311,154 317,156 Z"/><path d="M320,147 322,142 315,140 313,145 320,147 Z"/><path d="M322,142 325,135 318,132 317,133 316,132 314,136 316,137 315,139 322,142 Z"/><path d="M325,135 327,129 320,127 319,129 317,128 315,132 316,132 317,133 318,132 325,135 Z"/><path d="M320,127 322,121 329,124 327,129 320,127 Z"/><path d="M299,88 300,104 310,102 306,86 299,88 Z"/><path d="M310,102 320,101 319,92 308,94 310,102 Z"/><path d="M320,93 330,92 331,99 321,100 320,93 Z"/><path d="M308,86 310,92 319,90 318,83 308,86 Z"/><path d="M319,91 329,89 327,81 318,83 319,91 Z"/><path d="M259,109 254,110 253,103 251,99 257,98 259,109 Z"/><path d="M241,102 251,99 253,103 242,107 241,102 Z"/><path d="M240,99 247,97 253,95 251,88 253,87 253,86 251,86 250,85 243,86 244,88 241,90 242,91 238,92 240,99 Z"/><path d="M241,90 237,91 235,83 235,82 241,80 243,86 244,88 241,90 Z"/><path d="M241,80 248,78 250,85 243,86 241,80 Z"/><path d="M248,78 251,77 256,76 258,84 253,86 251,86 250,85 248,78 Z"/><path d="M256,76 268,73 269,77 270,76 271,78 270,78 271,82 270,82 271,84 259,87 258,84 256,76 Z"/><path d="M290,79 290,67 282,69 282,79 290,79 Z"/><path d="M282,69 274,71 275,80 280,80 282,79 282,69 Z"/><path d="M274,83 275,87 279,87 283,86 282,81 280,82 274,83 Z"/><path d="M297,65 298,80 304,79 307,78 303,62 297,65 Z"/><path d="M308,78 320,75 317,67 306,69 308,78 Z"/><path d="M318,66 325,60 331,66 333,71 321,75 318,66 Z"/><path d="M304,61 313,55 316,60 305,67 304,61 Z"/><path d="M313,55 322,49 323,50 329,54 318,63 316,60 313,55 Z"/><path d="M327,38 323,41 317,31 320,30 321,32 323,31 327,38 Z"/><path d="M323,41 315,47 311,41 308,35 315,32 317,35 318,35 318,34 319,36 323,41 Z"/><path d="M291,41 297,39 297,41 301,49 300,49 301,50 304,54 298,57 297,56 296,56 294,51 295,51 295,49 294,50 292,47 294,46 291,41 Z"/><path d="M297,41 300,39 301,41 305,39 309,37 311,41 315,47 304,54 301,50 300,49 301,49 297,41 Z"/><path d="M286,49 289,59 273,63 270,52 270,51 273,50 274,52 286,49 Z"/><path d="M273,63 268,64 269,66 265,67 264,60 262,55 262,54 268,52 268,53 270,52 273,63 Z"/><path d="M232,78 230,70 234,67 236,71 239,69 240,69 240,70 242,74 240,75 241,75 232,78 Z"/><path d="M242,74 245,72 247,71 246,68 245,67 240,70 242,74 Z"/><path d="M230,70 228,66 229,65 229,64 233,62 233,63 235,62 238,65 234,67 230,70 Z"/><path d="M264,43 265,43 266,45 267,47 268,46 268,44 267,42 272,39 269,32 269,31 268,30 266,25 258,29 260,34 259,34 260,39 262,38 264,43 Z"/><path d="M266,25 267,24 266,21 265,22 263,17 262,16 258,17 259,19 254,21 258,29 266,25 Z"/><path d="M242,18 251,14 254,20 250,22 245,24 244,22 242,18 Z"/><path d="M244,22 235,26 232,20 241,16 242,18 244,22 Z"/><path d="M232,20 232,19 226,22 229,29 234,27 234,26 235,26 232,20 Z"/><path d="M222,23 222,22 215,26 219,34 220,34 226,32 222,23 Z"/><path d="M227,32 228,32 229,35 233,33 236,38 231,40 223,43 222,40 220,35 220,34 227,32 Z"/><path d="M223,43 224,47 232,45 234,44 234,43 236,41 235,38 231,40 223,43 Z"/><path d="M224,54 231,52 233,58 233,59 227,61 224,54 Z"/><path d="M231,52 236,50 236,49 238,48 240,53 241,52 242,56 233,58 231,52 Z"/><path d="M244,46 253,42 254,45 255,47 255,48 248,50 246,51 244,46 Z"/><path d="M244,46 242,41 245,39 250,37 253,42 244,46 Z"/><path d="M254,45 253,42 250,37 249,33 253,31 256,38 257,37 259,43 254,45 Z"/><path d="M249,33 244,25 245,24 250,22 252,25 253,28 254,30 253,31 249,33 Z"/><path d="M216,45 207,48 205,41 214,38 216,45 Z"/><path d="M214,38 210,29 203,31 201,32 201,31 199,32 196,33 196,34 198,38 199,38 201,42 204,41 205,41 214,38 Z"/><path d="M201,32 201,31 199,32 198,30 209,26 210,29 203,31 201,32 Z"/><path d="M209,26 206,17 197,21 198,23 196,24 198,30 209,26 Z"/><path d="M205,17 203,10 193,14 196,20 205,17 Z"/><path d="M203,10 201,4 198,6 191,10 193,13 203,10 Z"/><path d="M198,6 196,3 194,0 189,5 191,10 198,6 Z"/><path d="M188,6 184,11 187,17 189,16 192,14 190,10 188,6 Z"/><path d="M183,12 178,17 182,23 184,26 189,23 186,17 183,12 Z"/><path d="M175,20 172,22 173,23 177,29 181,27 179,26 175,20 Z"/><path d="M232,0 234,2 235,3 235,2 240,10 234,13 231,7 228,2 232,0 Z"/><path d="M234,13 229,16 226,10 230,7 231,7 234,13 Z"/><path d="M227,14 224,16 221,10 224,9 227,14 Z"/><path d="M220,18 220,19 214,22 211,15 218,12 220,18 Z"/><path d="M210,-9 204,-5 207,3 213,0 210,-9 Z"/><path d="M232,-1 228,-9 223,-6 227,1 232,-1 Z"/><path d="M211,14 208,4 213,1 213,2 217,1 218,3 219,3 219,5 222,4 223,8 218,11 217,11 211,14 Z"/><path d="M146,-1 135,2 131,-19 134,-20 135,-19 141,-21 144,-8 146,-1 Z"/><path d="M132,-7 134,2 128,4 127,-4 129,-4 129,-7 132,-7 Z"/><path d="M120,-3 126,-4 127,4 121,5 120,-3 Z"/><path d="M102,1 103,6 102,6 97,7 94,8 94,7 93,3 102,1 Z"/><path d="M102,6 104,13 98,14 97,7 102,6 Z"/><path d="M79,4 80,15 90,14 89,8 88,5 82,6 82,4 79,4 Z"/><path d="M89,8 93,7 93,8 92,8 92,9 93,14 90,14 89,8 Z"/><path d="M92,9 97,8 97,11 98,11 98,14 93,15 93,14 92,9 Z"/><path d="M46,-5 46,3 59,3 59,-5 46,-5 Z"/><path d="M46,3 45,9 50,8 62,8 62,5 59,5 59,3 46,3 Z"/><path d="M-3,91 3,91 4,98 1,98 -2,98 -3,91 Z"/><path d="M3,91 6,90 7,96 7,97 4,98 3,91 Z"/><path d="M28,75 28,74 26,74 27,75 23,75 23,74 23,75 22,75 21,84 31,85 31,75 28,75 Z"/><path d="M21,84 17,84 18,75 21,75 21,84 Z"/><path d="M17,84 12,84 12,80 12,77 13,77 13,74 16,74 18,74 18,75 17,84 Z"/><path d="M31,85 37,85 37,70 28,70 28,74 30,74 31,74 31,75 31,85 Z"/><path d="M7,50 8,62 11,62 14,62 14,56 14,50 8,50 7,50 Z"/><path d="M14,50 24,49 24,56 17,56 14,56 14,50 Z"/><path d="M24,49 30,49 29,54 29,56 29,58 26,58 26,59 26,61 24,61 24,60 24,56 24,49 Z"/><path d="M29,54 30,54 30,49 39,49 38,60 32,59 33,56 29,56 29,54 Z"/><path d="M38,60 37,69 21,69 21,64 21,62 24,61 24,62 29,62 29,58 29,56 33,56 32,59 38,60 Z"/><path d="M10,74 9,66 11,66 14,66 14,68 16,68 16,74 13,74 10,74 Z"/><path d="M-1,43 9,44 10,33 2,31 1,35 -1,43 Z"/><path d="M-2,13 4,13 4,15 3,21 -3,20 -2,13 Z"/><path d="M4,15 11,16 11,22 8,22 3,22 3,21 4,15 Z"/><path d="M11,16 14,16 14,20 15,20 14,23 14,26 10,25 11,22 11,16 Z"/><path d="M17,17 17,13 21,14 21,15 21,24 18,24 18,17 17,17 Z"/><path d="M21,15 37,15 37,25 31,25 31,22 30,22 30,21 26,21 25,25 21,24 21,15 Z"/><path d="M29,9 20,8 19,5 20,5 20,0 24,-1 24,2 29,1 29,9 Z"/><path d="M19,5 19,-1 15,-1 14,-1 14,1 14,7 20,8 19,5 Z"/><path d="M4,1 4,7 -2,7 -2,2 0,2 0,1 4,1 Z"/><path d="M0,-9 -7,-9 -7,-2 -4,-2 -3,2 -2,2 0,2 0,1 0,-2 0,-9 Z"/><path d="M5,-9 5,-6 5,2 10,2 10,1 10,-9 5,-9 Z"/><path d="M29,1 31,-8 38,-7 37,4 37,9 29,9 29,1 Z"/><path d="M69,206 75,207 76,204 76,198 77,198 77,195 74,195 75,193 71,192 70,197 69,206 Z"/><path d="M104,28 103,24 102,18 106,16 106,17 108,23 107,23 108,26 104,28 Z"/><path d="M108,23 106,17 110,16 112,22 108,23 Z"/><path d="M98,197 101,189 104,190 106,191 107,191 108,191 108,192 109,192 110,192 111,193 111,192 111,193 113,193 108,200 99,197 98,197 Z"/><path d="M113,193 117,203 115,203 115,204 114,204 113,203 107,201 108,200 113,193 Z"/><path d="M62,206 62,192 57,192 57,206 62,206 Z"/><path d="M14,1 11,1 11,0 10,0 10,1 10,2 10,8 14,7 14,1 Z"/><path d="M67,84 74,83 75,89 69,91 67,84 Z"/><path d="M120,89 124,89 124,88 123,83 122,83 122,82 120,83 119,83 119,86 119,87 120,88 120,89 Z"/><path d="M36,179 37,172 41,171 41,180 40,180 39,181 38,181 38,180 36,179 Z"/><path d="M238,183 238,184 242,184 243,184 242,183 244,183 244,179 243,171 238,172 239,183 238,183 Z"/><path d="M112,128 112,133 112,136 100,136 100,130 104,130 104,128 112,128 Z"/><path d="M223,162 222,159 224,159 224,161 226,161 229,168 223,169 222,166 223,162 Z"/><path d="M197,159 194,160 194,170 199,171 197,159 Z"/><path d="M236,41 235,38 236,38 237,37 239,36 241,41 237,43 236,41 Z"/><path d="M253,103 254,110 244,112 242,107 253,103 Z"/><path d="M264,60 261,61 258,62 260,68 262,68 265,67 264,60 Z"/><path d="M235,62 235,60 234,59 243,56 243,57 246,60 243,62 242,62 238,65 235,62 Z"/><path d="M232,45 233,47 234,50 225,53 224,47 232,45 Z"/><path d="M242,62 246,67 245,67 240,70 240,69 238,65 242,62 Z"/><path d="M224,16 220,18 218,12 221,10 224,16 Z"/><path d="M148,78 148,74 155,74 155,78 148,78 Z"/><path d="M141,70 136,70 137,64 137,55 141,54 142,54 142,62 142,63 141,70 Z"/><path d="M90,30 91,37 93,36 102,35 105,34 105,28 101,29 99,29 90,30 Z"/><path d="M113,-3 111,-2 107,-1 107,2 107,3 108,10 115,7 113,-3 Z"/><path d="M147,63 155,63 155,69 147,69 147,63 Z"/><path d="M133,9 139,8 140,12 141,14 141,17 142,19 138,20 133,21 132,19 136,18 133,9 Z"/><path d="M80,98 79,92 85,91 85,97 80,98 Z"/><path d="M184,-2 186,1 182,5 180,1 184,-2 Z"/><path d="M226,22 222,23 226,32 230,30 229,29 226,22 Z"/><path d="M147,25 146,17 146,15 146,14 149,13 151,24 147,25 Z"/><path d="M153,4 154,12 155,15 154,16 155,17 151,18 150,13 149,13 146,6 153,4 Z"/><path d="M6,90 11,89 12,89 12,90 11,90 11,96 7,96 6,90 Z"/><path d="M131,105 123,106 123,107 124,107 125,117 131,116 130,106 131,106 131,105 Z"/><path d="M112,144 112,147 101,147 101,143 109,143 112,144 Z"/><path d="M210,-9 209,-11 219,-14 223,-4 213,0 210,-9 Z"/><path d="M14,16 17,17 18,17 18,24 14,23 15,20 14,20 14,16 Z"/><path d="M165,126 167,130 159,132 157,133 156,129 165,126 Z"/><path d="M132,58 132,64 127,64 127,58 132,58 Z"/><path d="M133,55 132,58 127,58 128,54 133,55 Z"/><path d="M173,23 166,30 171,35 172,35 172,36 174,34 174,33 175,36 172,36 172,38 175,38 179,37 177,31 176,32 175,32 177,29 173,23 Z"/><path d="M152,33 148,35 144,35 142,29 146,27 146,26 147,26 152,33 Z"/><path d="M137,55 133,55 132,58 132,64 137,64 137,55 Z"/><path d="M67,111 71,111 71,122 69,122 69,125 67,125 66,125 67,111 Z"/><path d="M59,110 63,111 62,118 62,124 57,124 59,110 Z"/><path d="M77,124 84,125 84,118 83,111 76,111 77,124 Z"/><path d="M28,130 23,130 22,126 27,125 28,130 Z"/><path d="M27,125 32,125 33,129 28,130 27,125 Z"/><path d="M22,121 21,115 31,113 32,120 22,121 Z"/><path d="M21,115 21,110 22,109 26,108 31,106 31,113 21,115 Z"/><path d="M70,197 66,197 66,206 69,206 70,197 Z"/><path d="M44,199 51,199 51,196 56,196 57,205 57,207 56,207 57,211 50,213 48,207 47,207 44,200 44,199 Z"/><path d="M62,192 67,192 66,197 66,206 62,206 62,192 Z"/><path d="M-6,35 -4,28 -1,29 -1,30 1,31 0,35 -3,34 -4,35 -6,35 Z"/><path d="M245,39 243,35 248,33 250,37 245,39 Z"/><path d="M224,186 228,185 230,191 232,190 232,192 230,193 226,194 224,186 Z"/><path d="M5,145 4,140 1,141 1,142 2,145 2,146 5,145 Z"/><path d="M61,139 60,139 59,138 59,137 59,136 60,136 61,136 61,139 Z"/><path d="M83,159 82,161 84,162 83,167 82,168 82,170 82,171 81,176 71,173 71,172 71,171 70,172 65,170 67,158 68,153 79,155 79,156 81,157 81,156 82,156 83,156 84,156 84,157 84,158 83,159 Z"/><path d="M83,167 87,169 86,170 82,168 83,167 Z"/><path d="M41,171 45,172 44,175 44,177 46,178 47,178 46,182 43,182 43,177 41,177 41,171 Z"/><path d="M43,182 41,182 36,182 36,184 35,184 35,187 41,187 41,189 45,189 45,187 46,187 46,182 43,182 Z"/><path d="M88,140 90,140 90,143 88,143 88,142 88,140 Z"/><path d="M135,134 135,144 140,145 140,144 141,139 148,139 149,144 158,148 158,143 157,143 157,137 160,137 160,136 160,134 159,132 157,133 155,129 154,129 152,122 149,123 148,118 146,119 146,122 143,122 141,122 140,115 135,116 135,120 135,127 135,134 Z"/><path d="M124,101 128,101 127,89 124,89 123,89 124,101 Z"/><path d="M157,99 159,103 170,99 175,97 176,93 172,92 167,91 163,91 164,93 165,97 157,99 Z"/><path d="M174,102 173,99 179,96 179,98 179,99 179,100 174,102 Z"/><path d="M173,112 177,111 178,115 174,116 173,112 Z"/><path d="M178,33 177,30 181,28 183,32 180,33 178,33 Z"/><path d="M180,33 181,35 184,34 183,32 180,33 Z"/><path d="M187,17 189,20 190,23 196,21 194,18 191,19 189,16 187,17 Z"/><path d="M191,16 193,15 194,17 192,18 191,16 Z"/><path d="M190,24 197,21 198,23 196,24 191,26 190,24 Z"/><path d="M175,148 175,152 188,149 188,147 180,149 179,147 175,148 Z"/><path d="M7,97 11,96 12,99 8,100 7,97 Z"/><path d="M162,83 163,83 172,82 172,90 162,88 162,83 Z"/><path d="M233,141 234,144 236,143 235,141 233,141 Z"/><path d="M226,141 228,146 225,148 222,143 226,141 Z"/><path d="M217,148 219,152 216,153 216,157 223,155 219,147 217,148 Z"/><path d="M214,156 213,153 215,153 216,156 214,156 Z"/><path d="M208,154 211,153 211,157 208,157 208,154 Z"/><path d="M206,151 200,153 201,156 207,155 206,151 Z"/><path d="M196,152 199,152 200,153 201,157 198,158 199,158 198,155 196,152 Z"/><path d="M255,123 262,121 263,125 260,126 260,127 256,128 255,123 Z"/><path d="M267,131 272,129 273,133 269,134 268,134 267,131 Z"/><path d="M269,134 270,138 269,138 271,147 280,145 277,132 273,133 269,134 Z"/><path d="M262,145 269,142 271,150 269,150 268,146 265,147 266,151 265,152 264,152 262,145 Z"/><path d="M261,142 263,142 263,141 269,139 269,142 262,145 261,142 Z"/><path d="M272,125 273,130 276,129 276,130 277,130 277,129 284,128 284,129 287,128 288,127 287,122 272,125 Z"/><path d="M320,127 315,125 312,124 311,122 311,121 316,121 322,121 320,127 Z"/><path d="M226,10 223,4 227,2 230,7 226,10 Z"/><path d="M159,103 162,107 171,103 170,99 159,103 Z"/><path d="M158,147 158,148 157,163 163,163 165,148 158,147 Z"/><path d="M149,144 147,162 157,163 158,148 156,147 149,144 Z"/><path d="M165,145 165,148 163,163 170,163 171,145 165,145 Z"/><path d="M118,120 118,122 118,126 118,127 118,128 131,127 131,126 135,125 135,120 132,120 131,120 118,120 Z"/><path d="M131,127 133,127 133,133 135,134 135,127 135,125 131,126 131,127 Z"/><path d="M225,198 226,202 227,202 226,198 225,198 Z"/><path d="M86,175 87,164 88,164 89,158 96,159 95,165 96,166 97,158 101,159 106,159 105,167 114,168 112,186 112,187 102,186 104,179 102,178 102,179 100,178 86,175 Z"/><path d="M143,14 142,12 140,12 141,14 143,14 Z"/><path d="M133,21 130,22 130,19 132,18 132,19 133,21 Z"/><path d="M133,21 133,24 139,23 138,20 133,21 Z"/><path d="M102,35 105,34 112,34 112,35 111,36 112,41 106,41 106,38 103,39 102,35 Z"/><path d="M99,27 101,26 101,29 99,29 99,27 Z"/><path d="M119,55 119,51 126,51 126,55 119,55 Z"/><path d="M321,194 319,191 317,191 318,195 321,194 Z"/><path d="M320,187 319,188 316,189 317,191 319,191 321,190 320,187 Z"/><path d="M280,80 280,82 282,81 282,79 280,80 Z"/><path d="M253,95 254,94 253,87 251,88 253,95 Z"/><path d="M94,51 94,62 102,62 102,55 105,55 108,55 108,51 102,51 94,51 Z"/><path d="M4,1 4,-2 0,-2 0,1 4,1 Z"/><path d="M1,28 0,30 3,30 3,28 1,28 Z"/><path d="M19,27 23,27 23,32 19,32 19,27 Z"/><path d="M19,32 19,27 10,27 10,31 12,32 19,32 Z"/><path d="M8,22 8,25 10,25 11,22 8,22 Z"/><path d="M17,56 17,61 24,60 24,56 17,56 Z"/><path d="M28,70 21,70 21,73 28,74 28,70 Z"/><path d="M14,64 21,64 21,69 21,70 21,73 21,75 18,75 18,74 16,74 16,68 14,68 14,66 14,64 Z"/><path d="M11,66 14,66 14,64 14,62 11,62 11,66 Z"/><path d="M8,62 8,66 9,66 11,66 11,62 8,62 Z"/><path d="M93,3 88,4 88,5 89,8 93,7 94,7 93,3 Z"/><path d="M279,30 283,33 283,31 282,30 280,28 279,30 Z"/></g><g fill="none" stroke="#CFCFCA" stroke-width="0.8" opacity="0.65" stroke-dasharray="2.5 2" stroke-linecap="round"><path d="M113,105 110,105 97,106 91,107 85,108 79,108 57,108 50,108 38,107 37,107 36,107"/><path d="M293,62 270,69 263,71 259,72 249,74 247,75 231,81"/><path d="M260,2 273,28 279,40 282,40 287,39"/><path d="M139,168 142,167 144,167 154,169 156,169 168,169 170,169 171,169 172,169 175,167"/><path d="M175,167 174,166 174,164 173,147 173,143 173,142 173,141 173,140 174,139"/><path d="M85,108 86,118 86,120 86,122 85,138 85,140 85,142 86,149 86,154 86,157 86,159 85,165 83,176 83,179"/><path d="M287,39 303,32 324,24 326,22 327,20 326,17 327,14 329,10 333,6 334,5 336,3"/><path d="M220,50 213,51 210,51 206,52 203,53 201,54 199,55 198,56 197,57 195,57 182,59 180,60 179,60 177,60 175,59 173,59 167,59 165,59 165,57 156,57"/><path d="M225,64 228,62 235,60"/><path d="M115,153 102,152 99,152 86,149"/><path d="M14,134 8,115"/><path d="M242,116 243,121 251,148 255,164 255,167"/><path d="M302,167 303,174 303,177 304,182 307,200 308,207 309,210 310,212 311,214 313,216 317,220 320,221 323,223 324,224 331,226 336,227 341,229 344,230 347,231 350,232 351,232 353,233 355,233 360,234 363,235 364,235 365,235 368,236 377,238 383,239 388,241 391,242 393,243"/><path d="M288,44 291,56 293,62 299,60 306,57 323,45 329,41 337,37 344,34"/><path d="M293,62 294,85"/><path d="M134,217 141,212 148,208 154,203 160,199 164,197 168,194 173,191 181,188 187,186 195,184 197,183 199,182 200,181 202,180 203,179 204,177 205,176"/><path d="M296,108 301,162 302,167"/><path d="M340,102 338,109 326,139 317,163 317,164 317,165 317,166"/><path d="M160,134 146,129 135,127"/><path d="M88,195 87,198 84,208"/><path d="M9,82 9,84 9,87"/><path d="M-30,75 -22,75 -15,75 -15,77 -2,77 3,80"/><path d="M277,110 274,88 273,81 270,69"/><path d="M113,191 114,192 115,193 115,194 123,214 124,215 124,216"/><path d="M287,39 288,44"/><path d="M9,82 9,75 7,73 4,61"/><path d="M4,61 -5,61 -14,61"/><path d="M175,167 176,168 178,168 205,176 207,176 210,176 224,172 232,170 240,169 244,168 247,168"/><path d="M102,187 111,189 112,190 113,190 113,191"/><path d="M246,193 247,200 247,203 246,204 246,206 246,207 245,208 244,209 242,210 241,211"/><path d="M345,189 343,189 341,189 339,188 337,187 319,167 318,166 317,166"/><path d="M164,0 165,3 171,16 173,19"/><path d="M235,60 243,57"/><path d="M243,57 247,54 251,52 256,49 257,49 262,46 266,45"/><path d="M64,151 63,150 62,148 60,146 59,145 58,145 56,145 55,146 55,148 54,149 55,151 55,152 57,153 59,154 60,155 61,156 62,156 63,156 65,156 66,154 65,153 64,151"/><path d="M139,168 140,161 140,156 139,144"/><path d="M132,127 131,140"/><path d="M139,144 135,143 133,143 132,142 131,140"/><path d="M256,49 256,54"/><path d="M256,54 256,57 255,60 256,61 259,72"/><path d="M273,28 269,31"/><path d="M269,31 269,32 272,39 273,43"/><path d="M262,46 256,33 255,29 252,22 255,20 253,14 253,8"/><path d="M36,93 46,93 48,93 54,93 57,92 57,87 59,85 75,81"/><path d="M266,45 268,44"/><path d="M268,44 273,43 279,40"/><path d="M171,133 169,134"/><path d="M129,127 118,127"/><path d="M169,134 160,134"/><path d="M118,127 115,127"/><path d="M95,92 97,91 104,90 104,88 109,88 108,87 108,86 103,87 97,87 94,88 95,89 95,90 95,92"/><path d="M138,87 138,89"/><path d="M150,89 150,86"/><path d="M46,96 46,93"/><path d="M82,137 85,138"/><path d="M77,92 79,108"/><path d="M47,100 46,96"/><path d="M50,108 47,100"/><path d="M76,89 77,92"/><path d="M129,84 130,88"/><path d="M76,88 76,89"/><path d="M131,85 133,85"/><path d="M72,135 82,137"/><path d="M133,85 137,85 138,87"/><path d="M138,89 150,89 155,90"/><path d="M122,80 125,83 126,84 129,84 131,85"/><path d="M256,57 261,53 274,49 286,45"/><path d="M37,158 37,160"/><path d="M247,168 255,167 259,166 268,166 270,166 283,165 289,166 292,166 299,167 302,167"/><path d="M114,117 114,118 115,120 115,124 115,127 115,131 115,138 115,143 115,149 115,153 116,160"/><path d="M139,168 137,174 137,175 135,177 123,186"/><path d="M123,186 122,187 121,188 117,190 116,190 115,190 114,190 113,191"/><path d="M116,160 116,162 117,163 118,163 119,164 135,166 136,166 139,168"/><path d="M1,113 2,115"/><path d="M2,115 3,117"/><path d="M4,112 4,114"/><path d="M4,114 5,116"/><path d="M10,110 11,112"/><path d="M11,112 12,114"/><path d="M14,109 15,110"/><path d="M15,110 15,112"/><path d="M16,108 16,110"/><path d="M16,110 17,111"/><path d="M21,106 21,108"/><path d="M21,108 22,109"/><path d="M25,104 26,106"/><path d="M26,106 26,108"/><path d="M255,60 253,56"/><path d="M251,52 253,56"/><path d="M-2,77 0,75 3,73 7,73"/><path d="M-31,83 -28,83 -25,83 -23,83 -8,83 -6,84 9,84"/><path d="M3,80 5,80"/><path d="M5,80 9,82"/><path d="M59,62 73,67"/><path d="M165,69 165,70 163,72 160,74 158,75 157,76"/><path d="M286,202 298,197 299,196 299,194 300,193 299,190"/><path d="M37,160 36,163"/><path d="M164,49 162,49"/><path d="M162,49 156,50"/><path d="M179,58 179,60"/><path d="M183,142 182,137"/><path d="M175,147 173,147"/><path d="M141,156 140,156"/><path d="M242,188 243,188"/><path d="M240,172 240,169"/><path d="M243,191 243,192"/><path d="M243,192 244,197 244,198"/><path d="M243,197 244,197"/><path d="M129,132 135,134"/><path d="M131,127 129,127"/><path d="M135,127 132,127 131,127"/><path d="M88,142 85,142"/><path d="M62,148 63,138"/><path d="M139,144 139,142 139,140 138,138 138,136 137,135 137,134 137,132 138,129 139,128 141,127 143,127 145,128 146,128 147,130 148,132 148,133 150,135 150,136 150,138 151,141 154,144 156,146 156,147"/><path d="M150,138 148,139 147,139 144,138 141,138 140,138 138,137 138,136"/><path d="M135,134 137,134"/><path d="M228,114 218,118 205,89 217,84"/><path d="M45,30 42,30"/><path d="M65,38 65,40"/><path d="M46,40 45,40"/><path d="M263,175 264,177"/><path d="M55,69 59,69"/><path d="M44,69 41,69"/><path d="M304,79 305,82"/><path d="M255,47 256,46 257,49"/><path d="M262,68 263,71"/><path d="M261,61 260,60 256,61"/><path d="M262,55 256,57"/><path d="M268,64 269,64 270,69"/><path d="M246,120 243,121"/><path d="M137,105 137,103"/><path d="M123,101 123,104"/><path d="M116,101 116,104"/><path d="M117,107 117,104"/><path d="M110,108 110,109 111,109"/><path d="M111,109 114,109"/><path d="M110,108 110,105"/><path d="M117,118 114,118"/><path d="M92,110 91,107"/><path d="M112,166 114,166"/><path d="M4,61 4,54 4,50"/><path d="M4,50 4,47"/><path d="M165,59 165,67 165,69"/><path d="M306,38 305,36"/><path d="M304,38 306,38"/><path d="M304,34 303,32"/><path d="M305,36 304,34"/><path d="M305,39 304,38"/><path d="M223,58 225,64 231,81 238,102 241,109 241,111 241,112 242,114 242,116"/><path d="M220,50 223,58"/><path d="M163,40 184,39"/><path d="M155,41 163,40"/><path d="M286,45 288,44"/><path d="M286,45 289,55 291,56"/><path d="M-25,182 -22,180 -2,167 4,163 6,162 7,161 7,160"/><path d="M86,154 64,151"/><path d="M244,198 244,199 247,200"/><path d="M243,188 246,188"/><path d="M258,214 256,213 256,212 252,203 250,199"/><path d="M249,191 249,190"/><path d="M249,190 249,189 246,189"/><path d="M246,193 246,189 246,188 246,187 247,168"/><path d="M271,172 272,175"/><path d="M272,175 265,179 259,181 249,186 246,187"/><path d="M272,175 272,176"/><path d="M264,177 265,179"/><path d="M263,175 259,166"/><path d="M271,172 270,166"/><path d="M75,81 76,88 90,88 94,86"/><path d="M97,106 95,92"/><path d="M113,105 114,109 114,117"/><path d="M194,141 193,136"/><path d="M91,183 88,195"/><path d="M38,154 33,156 31,162"/><path d="M155,101 137,103 123,104 117,104 116,104 113,105"/><path d="M317,166 316,167 315,167 307,167 302,167"/><path d="M249,202 249,204 249,205 249,206 250,207 250,208 251,209 251,210 252,211 253,212 254,212 255,212 256,212 258,212 255,206 253,203 251,199 249,194 249,189 250,189 253,187 254,187 258,185 260,184 262,183 263,183 264,182 266,181 267,181 271,179 270,177 272,176 275,175 275,174 272,175 271,175 269,175 266,176 264,177 251,183 251,182 250,182 249,184 249,186 249,188 249,189 249,190 248,192 248,194 249,199 249,200 249,201 249,202"/><path d="M250,199 249,194 249,191"/><path d="M247,200 249,199 250,199"/><path d="M243,191 243,190 243,188"/><path d="M260,184 259,181"/><path d="M206,52 200,43"/><path d="M198,40 197,40"/><path d="M195,35 192,32"/><path d="M200,43 198,40 195,35"/><path d="M116,160 114,182"/><path d="M204,5 213,1 217,0"/><path d="M249,74 245,64"/><path d="M116,87 116,82"/><path d="M-3,54 4,54"/></g><g fill="none" stroke="#D8D8D2" stroke-width="3.6" stroke-linecap="round" stroke-linejoin="round"><path d="M242,116 241,117 240,117 239,119 238,120 236,121 234,122 210,133 207,134 205,134 202,135 198,136 193,136 187,137 186,137 184,137 182,137 181,138 180,138 178,139 177,139 176,139 175,139 174,139"/><path d="M296,108 277,110 268,111 262,111 258,112 255,112 250,114 247,114 242,116"/><path d="M37,89 28,89 27,88 23,87 20,87 9,87"/><path d="M278,-24 278,-23 277,-22 266,-5 260,2 255,6 253,8 245,11 242,13"/><path d="M155,101 154,98 154,94 155,90"/><path d="M196,-13 164,0 159,1"/><path d="M95,92 95,90 95,89 94,88 94,86 91,64 86,19"/><path d="M33,101 25,104 21,106 16,108 14,109 10,110 7,111 4,112 1,113 -1,114 -6,115 -8,116 -14,118 -17,118 -22,120 -26,120 -31,121 -33,122 -37,122 -40,123 -44,123 -47,124 -50,125 -52,125"/><path d="M41,47 22,47 10,47 4,47"/><path d="M46,-23 48,-22 51,-21 53,-21 57,-20 96,-20 97,-20 98,-20 99,-19 101,-19 102,-16 105,7 105,11 107,14"/><path d="M91,64 103,64 114,66 123,67 122,68 123,69 126,71 131,72 154,72 157,72"/><path d="M114,66 115,52 116,50 119,48 130,49"/><path d="M95,89 108,87 112,84 116,82 119,81 122,80 122,68"/><path d="M159,1 161,5 168,19 169,22"/><path d="M174,139 173,138 173,137 171,133 164,116 159,107 155,101"/><path d="M154,2 150,3 147,3 144,4 107,14"/><path d="M159,1 154,2"/><path d="M296,108 340,102"/><path d="M198,-7 199,-6 201,-4 201,-3 204,5 212,25 220,50"/><path d="M100,16 98,17 96,18 86,19 78,19"/><path d="M42,10 30,11 25,11 19,11 -1,10 -6,10 -11,9 -25,8 -26,7 -28,6 -31,5 -32,5 -33,5 -35,6 -36,6 -38,6 -43,5 -73,2 -95,-1"/><path d="M37,89 36,93 36,95 36,96 35,98 33,101"/><path d="M7,160 9,160 13,160 18,160 23,161 29,161 31,162"/><path d="M36,163 39,163 45,166 63,172 69,175 82,179 83,179 91,183"/><path d="M36,107 34,109 34,110 34,118 35,121 36,131 37,142 38,151 38,154 38,156 37,158"/><path d="M-1,142 0,140 1,139 1,138 1,137 2,136 3,136 9,134 10,134 11,134 12,134 13,135 14,134"/><path d="M36,107 36,106 33,101"/><path d="M41,47 41,69 40,85 40,86"/><path d="M4,47 -1,46 -7,46 -14,45 -30,42 -33,42 -36,41 -45,41"/><path d="M-63,160 -48,161 -22,161 -4,160 7,160"/><path d="M42,20 42,30 42,36"/><path d="M8,115 8,112"/><path d="M8,112 7,111"/><path d="M157,72 156,64 156,57 156,50 155,41 156,39 157,36 158,34 161,30 169,22"/><path d="M155,90 155,87"/><path d="M60,176 65,177 67,177 68,176 69,175"/><path d="M14,134 19,134 32,131 34,131 36,131 49,133 72,135"/><path d="M75,81 73,67 70,40 65,40 60,40 46,40"/><path d="M60,40 59,62 59,69 59,85"/><path d="M162,79 165,79 169,81 181,80 219,66 223,64 225,64"/><path d="M155,101 150,109 149,112"/><path d="M149,112 149,113 148,115"/><path d="M148,115 145,117 141,122"/><path d="M162,79 156,79"/><path d="M46,-40 46,-37 46,-36 46,-34 45,-27 45,-25 46,-23 45,-22 44,-19 44,-18 43,-16 43,-10 42,10 42,20"/><path d="M31,162 36,163"/><path d="M240,117 237,117"/><path d="M231,115 228,114"/><path d="M236,116 231,115"/><path d="M45,40 42,40"/><path d="M237,117 236,116"/><path d="M91,183 102,187"/><path d="M242,13 240,14 232,17 223,20 216,24 212,25"/><path d="M156,80 156,79 157,76 157,72"/><path d="M78,19 42,20"/><path d="M40,86 40,87 39,88 38,89 37,89"/><path d="M42,36 42,40 42,42 41,47"/><path d="M107,14 100,16"/><path d="M9,160 9,157 9,147"/><path d="M49,133 50,136 53,139 58,141 61,141"/><path d="M9,87 1,87 -3,87 -30,88 -39,88 -44,89"/><path d="M344,73 340,74 305,82 294,85 296,108"/><path d="M253,97 238,102"/><path d="M192,32 186,32 181,24 175,16"/><path d="M155,87 155,85 156,80"/><path d="M169,22 173,19 175,16 198,-7"/></g><g fill="none" stroke="#FFFFFF" stroke-width="2.4" stroke-linecap="round" stroke-linejoin="round"><path d="M242,116 241,117 240,117 239,119 238,120 236,121 234,122 210,133 207,134 205,134 202,135 198,136 193,136 187,137 186,137 184,137 182,137 181,138 180,138 178,139 177,139 176,139 175,139 174,139"/><path d="M296,108 277,110 268,111 262,111 258,112 255,112 250,114 247,114 242,116"/><path d="M37,89 28,89 27,88 23,87 20,87 9,87"/><path d="M278,-24 278,-23 277,-22 266,-5 260,2 255,6 253,8 245,11 242,13"/><path d="M155,101 154,98 154,94 155,90"/><path d="M196,-13 164,0 159,1"/><path d="M95,92 95,90 95,89 94,88 94,86 91,64 86,19"/><path d="M33,101 25,104 21,106 16,108 14,109 10,110 7,111 4,112 1,113 -1,114 -6,115 -8,116 -14,118 -17,118 -22,120 -26,120 -31,121 -33,122 -37,122 -40,123 -44,123 -47,124 -50,125 -52,125"/><path d="M41,47 22,47 10,47 4,47"/><path d="M46,-23 48,-22 51,-21 53,-21 57,-20 96,-20 97,-20 98,-20 99,-19 101,-19 102,-16 105,7 105,11 107,14"/><path d="M91,64 103,64 114,66 123,67 122,68 123,69 126,71 131,72 154,72 157,72"/><path d="M114,66 115,52 116,50 119,48 130,49"/><path d="M95,89 108,87 112,84 116,82 119,81 122,80 122,68"/><path d="M159,1 161,5 168,19 169,22"/><path d="M174,139 173,138 173,137 171,133 164,116 159,107 155,101"/><path d="M154,2 150,3 147,3 144,4 107,14"/><path d="M159,1 154,2"/><path d="M296,108 340,102"/><path d="M198,-7 199,-6 201,-4 201,-3 204,5 212,25 220,50"/><path d="M100,16 98,17 96,18 86,19 78,19"/><path d="M42,10 30,11 25,11 19,11 -1,10 -6,10 -11,9 -25,8 -26,7 -28,6 -31,5 -32,5 -33,5 -35,6 -36,6 -38,6 -43,5 -73,2 -95,-1"/><path d="M37,89 36,93 36,95 36,96 35,98 33,101"/><path d="M7,160 9,160 13,160 18,160 23,161 29,161 31,162"/><path d="M36,163 39,163 45,166 63,172 69,175 82,179 83,179 91,183"/><path d="M36,107 34,109 34,110 34,118 35,121 36,131 37,142 38,151 38,154 38,156 37,158"/><path d="M-1,142 0,140 1,139 1,138 1,137 2,136 3,136 9,134 10,134 11,134 12,134 13,135 14,134"/><path d="M36,107 36,106 33,101"/><path d="M41,47 41,69 40,85 40,86"/><path d="M4,47 -1,46 -7,46 -14,45 -30,42 -33,42 -36,41 -45,41"/><path d="M-63,160 -48,161 -22,161 -4,160 7,160"/><path d="M42,20 42,30 42,36"/><path d="M8,115 8,112"/><path d="M8,112 7,111"/><path d="M157,72 156,64 156,57 156,50 155,41 156,39 157,36 158,34 161,30 169,22"/><path d="M155,90 155,87"/><path d="M60,176 65,177 67,177 68,176 69,175"/><path d="M14,134 19,134 32,131 34,131 36,131 49,133 72,135"/><path d="M75,81 73,67 70,40 65,40 60,40 46,40"/><path d="M60,40 59,62 59,69 59,85"/><path d="M162,79 165,79 169,81 181,80 219,66 223,64 225,64"/><path d="M155,101 150,109 149,112"/><path d="M149,112 149,113 148,115"/><path d="M148,115 145,117 141,122"/><path d="M162,79 156,79"/><path d="M46,-40 46,-37 46,-36 46,-34 45,-27 45,-25 46,-23 45,-22 44,-19 44,-18 43,-16 43,-10 42,10 42,20"/><path d="M31,162 36,163"/><path d="M240,117 237,117"/><path d="M231,115 228,114"/><path d="M236,116 231,115"/><path d="M45,40 42,40"/><path d="M237,117 236,116"/><path d="M91,183 102,187"/><path d="M242,13 240,14 232,17 223,20 216,24 212,25"/><path d="M156,80 156,79 157,76 157,72"/><path d="M78,19 42,20"/><path d="M40,86 40,87 39,88 38,89 37,89"/><path d="M42,36 42,40 42,42 41,47"/><path d="M107,14 100,16"/><path d="M9,160 9,157 9,147"/><path d="M49,133 50,136 53,139 58,141 61,141"/><path d="M9,87 1,87 -3,87 -30,88 -39,88 -44,89"/><path d="M344,73 340,74 305,82 294,85 296,108"/><path d="M253,97 238,102"/><path d="M192,32 186,32 181,24 175,16"/><path d="M155,87 155,85 156,80"/><path d="M169,22 173,19 175,16 198,-7"/></g><circle cx="160" cy="100" r="13" fill="#0F7A5F" opacity="0.14"/><circle cx="160" cy="100" r="6.5" fill="#FFFFFF"/><circle cx="160" cy="100" r="4.5" fill="#0F7A5F"/></svg>